<svg xmlns="http://www.w3.org/2000/svg" width="805" height="600"><rect width="805" height="600" x="0" y="0" fill="#FFFFFF" id="background"/><g transform="translate(10,10)" id="viz"><g id="links"><path d="M0,290C107.5,290,107.5,28.820344049737834,215,28.820344049737834" fill="none" stroke="#ccc"/><path d="M0,290C107.5,290,107.5,88.03318978254485,215,88.03318978254485" fill="none" stroke="#ccc"/><path d="M0,290C107.5,290,107.5,147.09147313236016,215,147.09147313236016" fill="none" stroke="#ccc"/><path d="M0,290C107.5,290,107.5,205.94191821205254,215,205.94191821205254" fill="none" stroke="#ccc"/><path d="M0,290C107.5,290,107.5,264.25713748494275,215,264.25713748494275" fill="none" stroke="#ccc"/><path d="M0,290C107.5,290,107.5,322.03055119642175,215,322.03055119642175" fill="none" stroke="#ccc"/><path d="M0,290C107.5,290,107.5,379.6367826334662,215,379.6367826334662" fill="none" stroke="#ccc"/><path d="M0,290C107.5,290,107.5,437.18692119257565,215,437.18692119257565" fill="none" stroke="#ccc"/><path d="M0,290C107.5,290,107.5,494.5664990333501,215,494.5664990333501" fill="none" stroke="#ccc"/><path d="M0,290C107.5,290,107.5,551.1796559502621,215,551.1796559502621" fill="none" stroke="#ccc"/><path d="M215,28.820344049737834C322.5,28.820344049737834,322.5,28.820344049737834,430,28.820344049737834" fill="none" stroke="#ccc"/><path d="M215,88.03318978254485C322.5,88.03318978254485,322.5,88.03318978254485,430,88.03318978254485" fill="none" stroke="#ccc"/><path d="M215,147.09147313236016C322.5,147.09147313236016,322.5,147.09147313236016,430,147.09147313236016" fill="none" stroke="#ccc"/><path d="M215,205.94191821205254C322.5,205.94191821205254,322.5,205.94191821205254,430,205.94191821205254" fill="none" stroke="#ccc"/><path d="M215,264.25713748494275C322.5,264.25713748494275,322.5,264.25713748494275,430,264.25713748494275" fill="none" stroke="#ccc"/><path d="M215,322.03055119642175C322.5,322.03055119642175,322.5,322.03055119642175,430,322.03055119642175" fill="none" stroke="#ccc"/><path d="M215,379.6367826334662C322.5,379.6367826334662,322.5,379.6367826334662,430,379.6367826334662" fill="none" stroke="#ccc"/><path d="M215,437.18692119257565C322.5,437.18692119257565,322.5,437.18692119257565,430,437.18692119257565" fill="none" stroke="#ccc"/><path d="M215,494.5664990333501C322.5,494.5664990333501,322.5,494.5664990333501,430,494.5664990333501" fill="none" stroke="#ccc"/><path d="M215,551.1796559502621C322.5,551.1796559502621,322.5,551.1796559502621,430,551.1796559502621" fill="none" stroke="#ccc"/><path d="M430,28.820344049737834C537.5,28.820344049737834,537.5,28.820344049737834,645,28.820344049737834" fill="none" stroke="#ccc"/><path d="M430,88.03318978254485C537.5,88.03318978254485,537.5,88.03318978254485,645,88.03318978254485" fill="none" stroke="#ccc"/><path d="M430,147.09147313236016C537.5,147.09147313236016,537.5,147.09147313236016,645,147.09147313236016" fill="none" stroke="#ccc"/><path d="M430,205.94191821205254C537.5,205.94191821205254,537.5,205.94191821205254,645,205.94191821205254" fill="none" stroke="#ccc"/><path d="M430,264.25713748494275C537.5,264.25713748494275,537.5,264.25713748494275,645,264.25713748494275" fill="none" stroke="#ccc"/><path d="M430,322.03055119642175C537.5,322.03055119642175,537.5,322.03055119642175,645,322.03055119642175" fill="none" stroke="#ccc"/><path d="M430,379.6367826334662C537.5,379.6367826334662,537.5,379.6367826334662,645,379.6367826334662" fill="none" stroke="#ccc"/><path d="M430,437.18692119257565C537.5,437.18692119257565,537.5,437.18692119257565,645,437.18692119257565" fill="none" stroke="#ccc"/><path d="M430,494.5664990333501C537.5,494.5664990333501,537.5,494.5664990333501,645,494.5664990333501" fill="none" stroke="#ccc"/><path d="M430,551.1796559502621C537.5,551.1796559502621,537.5,551.1796559502621,645,551.1796559502621" fill="none" stroke="#ccc"/></g><g id="nodes"><g transform="translate(0,290)"><circle fill="#1f77b4" r="5"/><text text-anchor="end" dominant-baseline="text-before-edge" transform="translate(0,0)"><tspan x="-8" y="0" dy="0" style="font-family: Arial, sans-serif; font-size: 10px; fill: black; font-weight: normal;"/></text></g><g id="Cristiano Ronaldo" transform="translate(215,28.820344049737834)"><circle fill="#1f77b4" r="5"/><text text-anchor="end" dominant-baseline="text-before-edge" transform="translate(0,-5.5)"><tspan x="-8" y="0" dy="0" style="font-family: Arial, sans-serif; font-size: 10px; fill: black; font-weight: normal;">Cristiano Ronaldo</tspan></text></g><g id="Neymar Jr" transform="translate(215,88.03318978254485)"><circle fill="#1f77b4" r="5"/><text text-anchor="end" dominant-baseline="text-before-edge" transform="translate(0,-5.5)"><tspan x="-8" y="0" dy="0" style="font-family: Arial, sans-serif; font-size: 10px; fill: black; font-weight: normal;">Neymar Jr</tspan></text></g><g id="E. Hazard" transform="translate(215,147.09147313236016)"><circle fill="#1f77b4" r="5"/><text text-anchor="end" dominant-baseline="text-before-edge" transform="translate(0,-5.5)"><tspan x="-8" y="0" dy="0" style="font-family: Arial, sans-serif; font-size: 10px; fill: black; font-weight: normal;">E. Hazard</tspan></text></g><g id="L. Messi" transform="translate(215,205.94191821205254)"><circle fill="#1f77b4" r="5"/><text text-anchor="end" dominant-baseline="text-before-edge" transform="translate(0,-5.5)"><tspan x="-8" y="0" dy="0" style="font-family: Arial, sans-serif; font-size: 10px; fill: black; font-weight: normal;">L. Messi</tspan></text></g><g id="R. Lewandowski" transform="translate(215,264.25713748494275)"><circle fill="#1f77b4" r="5"/><text text-anchor="end" dominant-baseline="text-before-edge" transform="translate(0,-5.5)"><tspan x="-8" y="0" dy="0" style="font-family: Arial, sans-serif; font-size: 10px; fill: black; font-weight: normal;">R. Lewandowski</tspan></text></g><g id="K. De Bruyne" transform="translate(215,322.03055119642175)"><circle fill="#1f77b4" r="5"/><text text-anchor="end" dominant-baseline="text-before-edge" transform="translate(0,-5.5)"><tspan x="-8" y="0" dy="0" style="font-family: Arial, sans-serif; font-size: 10px; fill: black; font-weight: normal;">K. De Bruyne</tspan></text></g><g id="L. Suárez" transform="translate(215,379.6367826334662)"><circle fill="#1f77b4" r="5"/><text text-anchor="end" dominant-baseline="text-before-edge" transform="translate(0,-5.5)"><tspan x="-8" y="0" dy="0" style="font-family: Arial, sans-serif; font-size: 10px; fill: black; font-weight: normal;">L. Suárez</tspan></text></g><g id="Sergio Ramos" transform="translate(215,437.18692119257565)"><circle fill="#1f77b4" r="5"/><text text-anchor="end" dominant-baseline="text-before-edge" transform="translate(0,-5.5)"><tspan x="-8" y="0" dy="0" style="font-family: Arial, sans-serif; font-size: 10px; fill: black; font-weight: normal;">Sergio Ramos</tspan></text></g><g id="L. Modrić" transform="translate(215,494.5664990333501)"><circle fill="#1f77b4" r="5"/><text text-anchor="end" dominant-baseline="text-before-edge" transform="translate(0,-5.5)"><tspan x="-8" y="0" dy="0" style="font-family: Arial, sans-serif; font-size: 10px; fill: black; font-weight: normal;">L. Modrić</tspan></text></g><g id="T. Kroos" transform="translate(215,551.1796559502621)"><circle fill="#1f77b4" r="5"/><text text-anchor="end" dominant-baseline="text-before-edge" transform="translate(0,-5.5)"><tspan x="-8" y="0" dy="0" style="font-family: Arial, sans-serif; font-size: 10px; fill: black; font-weight: normal;">T. Kroos</tspan></text></g><g id="Portugal" transform="translate(430,28.820344049737834)"><circle fill="#1f77b4" r="5"/><text text-anchor="end" dominant-baseline="text-before-edge" transform="translate(0,-5.5)"><tspan x="-8" y="0" dy="0" style="font-family: Arial, sans-serif; font-size: 10px; fill: black; font-weight: normal;">Portugal</tspan></text></g><g id="Brazil" transform="translate(430,88.03318978254485)"><circle fill="#1f77b4" r="5"/><text text-anchor="end" dominant-baseline="text-before-edge" transform="translate(0,-5.5)"><tspan x="-8" y="0" dy="0" style="font-family: Arial, sans-serif; font-size: 10px; fill: black; font-weight: normal;">Brazil</tspan></text></g><g id="Belgium" transform="translate(430,147.09147313236016)"><circle fill="#1f77b4" r="5"/><text text-anchor="end" dominant-baseline="text-before-edge" transform="translate(0,-5.5)"><tspan x="-8" y="0" dy="0" style="font-family: Arial, sans-serif; font-size: 10px; fill: black; font-weight: normal;">Belgium</tspan></text></g><g id="Argentina" transform="translate(430,205.94191821205254)"><circle fill="#1f77b4" r="5"/><text text-anchor="end" dominant-baseline="text-before-edge" transform="translate(0,-5.5)"><tspan x="-8" y="0" dy="0" style="font-family: Arial, sans-serif; font-size: 10px; fill: black; font-weight: normal;">Argentina</tspan></text></g><g id="Poland" transform="translate(430,264.25713748494275)"><circle fill="#1f77b4" r="5"/><text text-anchor="end" dominant-baseline="text-before-edge" transform="translate(0,-5.5)"><tspan x="-8" y="0" dy="0" style="font-family: Arial, sans-serif; font-size: 10px; fill: black; font-weight: normal;">Poland</tspan></text></g><g id="Belgium" transform="translate(430,322.03055119642175)"><circle fill="#1f77b4" r="5"/><text text-anchor="end" dominant-baseline="text-before-edge" transform="translate(0,-5.5)"><tspan x="-8" y="0" dy="0" style="font-family: Arial, sans-serif; font-size: 10px; fill: black; font-weight: normal;">Belgium</tspan></text></g><g id="Uruguay" transform="translate(430,379.6367826334662)"><circle fill="#1f77b4" r="5"/><text text-anchor="end" dominant-baseline="text-before-edge" transform="translate(0,-5.5)"><tspan x="-8" y="0" dy="0" style="font-family: Arial, sans-serif; font-size: 10px; fill: black; font-weight: normal;">Uruguay</tspan></text></g><g id="Spain" transform="translate(430,437.18692119257565)"><circle fill="#1f77b4" r="5"/><text text-anchor="end" dominant-baseline="text-before-edge" transform="translate(0,-5.5)"><tspan x="-8" y="0" dy="0" style="font-family: Arial, sans-serif; font-size: 10px; fill: black; font-weight: normal;">Spain</tspan></text></g><g id="Croatia" transform="translate(430,494.5664990333501)"><circle fill="#1f77b4" r="5"/><text text-anchor="end" dominant-baseline="text-before-edge" transform="translate(0,-5.5)"><tspan x="-8" y="0" dy="0" style="font-family: Arial, sans-serif; font-size: 10px; fill: black; font-weight: normal;">Croatia</tspan></text></g><g id="Germany" transform="translate(430,551.1796559502621)"><circle fill="#1f77b4" r="5"/><text text-anchor="end" dominant-baseline="text-before-edge" transform="translate(0,-5.5)"><tspan x="-8" y="0" dy="0" style="font-family: Arial, sans-serif; font-size: 10px; fill: black; font-weight: normal;">Germany</tspan></text></g><g id="Juventus" transform="translate(645,28.820344049737834)"><circle fill="#1f77b4" r="10"/><text text-anchor="start" dominant-baseline="text-before-edge" transform="translate(0,0)"/></g><g id="Paris Saint-Germain" transform="translate(645,88.03318978254485)"><circle fill="#1f77b4" r="9.944903161976939"/><text text-anchor="start" dominant-baseline="text-before-edge" transform="translate(0,0)"/></g><g id="Chelsea" transform="translate(645,147.09147313236016)"><circle fill="#1f77b4" r="9.833783437888833"/><text text-anchor="start" dominant-baseline="text-before-edge" transform="translate(0,0)"/></g><g id="FC Barcelona" transform="translate(645,205.94191821205254)"><circle fill="#1f77b4" r="9.721393650372075"/><text text-anchor="start" dominant-baseline="text-before-edge" transform="translate(0,0)"/></g><g id="FC Bayern München" transform="translate(645,264.25713748494275)"><circle fill="#1f77b4" r="9.258200997725517"/><text text-anchor="start" dominant-baseline="text-before-edge" transform="translate(0,0)"/></g><g id="Manchester City" transform="translate(645,322.03055119642175)"><circle fill="#1f77b4" r="9.138735334633756"/><text text-anchor="start" dominant-baseline="text-before-edge" transform="translate(0,0)"/></g><g id="FC Barcelona" transform="translate(645,379.6367826334662)"><circle fill="#1f77b4" r="9.078412990032037"/><text text-anchor="start" dominant-baseline="text-before-edge" transform="translate(0,0)"/></g><g id="Real Madrid" transform="translate(645,437.18692119257565)"><circle fill="#1f77b4" r="9.078412990032037"/><text text-anchor="start" dominant-baseline="text-before-edge" transform="translate(0,0)"/></g><g id="Real Madrid" transform="translate(645,494.5664990333501)"><circle fill="#1f77b4" r="8.894991799933214"/><text text-anchor="start" dominant-baseline="text-before-edge" transform="translate(0,0)"/></g><g id="Real Madrid" transform="translate(645,551.1796559502621)"><circle fill="#1f77b4" r="8.25420305855557"/><text text-anchor="start" dominant-baseline="text-before-edge" transform="translate(0,0)"/></g></g></g></svg>