<svg xmlns="http://www.w3.org/2000/svg" width="805" height="600"><rect width="805" height="600" x="0" y="0" fill="#FFFFFF" id="background"/><g id="viz"><g transform="translate(0,0)"><g transform="translate(10,20)"><g><path fill="#9467bd" d="M0,539.679C8.527022201059461,539.679,8.527022201059461,537.2605,17.054044402118922,537.2605C25.581066603178385,537.2605,25.581066603178385,535.78,34.108088804237845,535.78C42.635111005297304,535.78,42.635111005297304,530.985,51.162133206356756,530.985C59.712517112076654,530.985,59.712517112076654,522.879,68.26290101779655,522.879C76.78992321885602,522.879,76.78992321885602,511.077,85.31694541991548,511.077C93.84396762097495,511.077,93.84396762097495,515.7284999999999,102.37098982203442,515.7284999999999C110.89801202309387,515.7284999999999,110.89801202309387,516.88,119.42503422415332,516.88C127.97541812987322,516.88,127.97541812987322,511.847,136.5258020355931,511.847C145.05282423665255,511.847,145.05282423665255,510.28249999999997,153.57984643771204,510.28249999999997C162.10686863877152,510.28249999999997,162.10686863877152,496.6185,170.63389083983097,496.6185C179.16091304089042,496.6185,179.16091304089042,476.5635,187.6879352419499,476.5635C196.2383191476698,476.5635,196.2383191476698,475.59749999999997,204.7887030533897,475.59749999999997C213.31572525444915,475.59749999999997,213.31572525444915,472.51750000000004,221.8427474555086,472.51750000000004C230.36976965656805,472.51750000000004,230.36976965656805,455.90999999999997,238.89679185762753,455.90999999999997C247.423814058687,455.90999999999997,247.423814058687,439.516,255.95083625974644,439.516C264.5002467611055,439.516,264.5002467611055,436.086,273.04965726246456,436.086C281.576679463524,436.086,281.576679463524,429.4395,290.10370166458347,429.4395C298.63072386564295,429.4395,298.63072386564295,446.25,307.1577460667024,446.25C315.68476826776185,446.25,315.68476826776185,440.4715,324.21179046882133,440.4715C332.76217437454125,440.4715,332.76217437454125,447.4995,341.3125582802611,447.4995C349.8405538856814,447.4995,349.8405538856814,446.2045,358.36854949110176,446.2045C366.8955716921612,446.2045,366.8955716921612,471.1035,375.42259389322066,471.1035C383.94961609428015,471.1035,383.94961609428015,486.689,392.47663829533957,486.689C401.0270222010595,486.689,401.0270222010595,502.033,409.5774061067794,502.033C418.1044283078388,502.033,418.1044283078388,506.9995,426.6314505088983,506.9995C435.1584727099578,506.9995,435.1584727099578,521.164,443.6854949110172,521.164C452.2125171120766,521.164,452.2125171120766,537.929,460.7395393131361,537.929C469.289923218856,537.929,469.289923218856,547.281,477.84030712457593,547.281C486.3673293256354,547.281,486.3673293256354,552.657,494.89435152669483,552.657C503.42137372775426,552.657,503.42137372775426,556.2165,511.94839592881374,556.2165C520.4754181298732,556.2165,520.4754181298732,559.1705000000001,529.0024403309327,559.1705000000001C537.5528242366526,559.1705000000001,537.5528242366526,559.5415,546.1032081423724,559.5415C554.630230343432,559.5415,554.630230343432,559.8705,563.1572525444915,559.8705C571.684274745551,559.8705,571.684274745551,559.895,580.2112969466103,559.895C588.7373457433089,559.895,588.7373457433089,559.9685000000001,597.2633945400075,559.9685000000001C605.8137784457274,559.9685000000001,605.8137784457274,560,614.3641623514474,560C622.8921579568677,560,622.8921579568677,560,631.420153562288,560C639.9471757633474,560,639.9471757633474,560,648.4741979644069,560C657.0012201654663,560,657.0012201654663,560,665.5282423665258,560C674.0786262722456,560,674.0786262722456,560,682.6290101779656,560C691.156032379025,560,691.156032379025,560,699.6830545800844,560C708.2100767811439,560,708.2100767811439,560,716.7370989822035,560C725.2641211832629,560,725.2641211832629,560,733.7911433843224,560C742.3415272900422,560,742.3415272900422,560,750.8919111957622,560C759.4189333968216,560,759.4189333968216,560,767.945955597881,560C776.4729777989405,560,776.4729777989405,560,785,560L785,560C776.4729777989405,560,776.4729777989405,560,767.945955597881,560C759.4189333968216,560,759.4189333968216,560,750.8919111957622,560C742.3415272900422,560,742.3415272900422,560,733.7911433843224,560C725.2641211832629,560,725.2641211832629,560,716.7370989822035,560C708.2100767811439,560,708.2100767811439,560,699.6830545800844,560C691.156032379025,560,691.156032379025,560,682.6290101779656,560C674.0786262722456,560,674.0786262722456,560,665.5282423665258,560C657.0012201654663,560,657.0012201654663,560,648.4741979644069,560C639.9471757633474,560,639.9471757633474,560,631.420153562288,560C622.8921579568677,560,622.8921579568677,560,614.3641623514474,560C605.8137784457274,560,605.8137784457274,560,597.2633945400075,560C588.7373457433089,560,588.7373457433089,560,580.2112969466103,560C571.684274745551,560,571.684274745551,560,563.1572525444915,560C554.630230343432,560,554.630230343432,560,546.1032081423724,560C537.5528242366526,560,537.5528242366526,560,529.0024403309327,560C520.4754181298732,560,520.4754181298732,560,511.94839592881374,560C503.42137372775426,560,503.42137372775426,560,494.89435152669483,560C486.3673293256354,560,486.3673293256354,560,477.84030712457593,560C469.289923218856,560,469.289923218856,560,460.7395393131361,560C452.2125171120766,560,452.2125171120766,560,443.6854949110172,560C435.1584727099578,560,435.1584727099578,560,426.6314505088983,560C418.1044283078388,560,418.1044283078388,560,409.5774061067794,560C401.0270222010595,560,401.0270222010595,560,392.47663829533957,560C383.94961609428015,560,383.94961609428015,560,375.42259389322066,560C366.8955716921612,560,366.8955716921612,560,358.36854949110176,560C349.8405538856814,560,349.8405538856814,560,341.3125582802611,560C332.76217437454125,560,332.76217437454125,560,324.21179046882133,560C315.68476826776185,560,315.68476826776185,560,307.1577460667024,560C298.63072386564295,560,298.63072386564295,560,290.10370166458347,560C281.576679463524,560,281.576679463524,560,273.04965726246456,560C264.5002467611055,560,264.5002467611055,560,255.95083625974644,560C247.423814058687,560,247.423814058687,560,238.89679185762753,560C230.36976965656805,560,230.36976965656805,560,221.8427474555086,560C213.31572525444915,560,213.31572525444915,560,204.7887030533897,560C196.2383191476698,560,196.2383191476698,560,187.6879352419499,560C179.16091304089042,560,179.16091304089042,560,170.63389083983097,560C162.10686863877152,560,162.10686863877152,560,153.57984643771204,560C145.05282423665255,560,145.05282423665255,560,136.5258020355931,560C127.97541812987322,560,127.97541812987322,560,119.42503422415332,560C110.89801202309387,560,110.89801202309387,560,102.37098982203442,560C93.84396762097495,560,93.84396762097495,560,85.31694541991548,560C76.78992321885602,560,76.78992321885602,560,68.26290101779655,560C59.712517112076654,560,59.712517112076654,560,51.162133206356756,560C42.635111005297304,560,42.635111005297304,560,34.108088804237845,560C25.581066603178385,560,25.581066603178385,560,17.054044402118922,560C8.527022201059461,560,8.527022201059461,560,0,560Z"><title>Tape</title></path><path fill="#1f77b4" d="M0,539.679C8.527022201059461,539.679,8.527022201059461,537.2605,17.054044402118922,537.2605C25.581066603178385,537.2605,25.581066603178385,535.78,34.108088804237845,535.78C42.635111005297304,535.78,42.635111005297304,530.985,51.162133206356756,530.985C59.712517112076654,530.985,59.712517112076654,522.879,68.26290101779655,522.879C76.78992321885602,522.879,76.78992321885602,511.077,85.31694541991548,511.077C93.84396762097495,511.077,93.84396762097495,515.7284999999999,102.37098982203442,515.7284999999999C110.89801202309387,515.7284999999999,110.89801202309387,516.88,119.42503422415332,516.88C127.97541812987322,516.88,127.97541812987322,511.847,136.5258020355931,511.847C145.05282423665255,511.847,145.05282423665255,510.28249999999997,153.57984643771204,510.28249999999997C162.10686863877152,510.28249999999997,162.10686863877152,496.0165,170.63389083983097,496.0165C179.16091304089042,496.0165,179.16091304089042,472.94800000000004,187.6879352419499,472.94800000000004C196.2383191476698,472.94800000000004,196.2383191476698,461.965,204.7887030533897,461.965C213.31572525444915,461.965,213.31572525444915,439.964,221.8427474555086,439.964C230.36976965656805,439.964,230.36976965656805,400.13399999999996,238.89679185762753,400.13399999999996C247.423814058687,400.13399999999996,247.423814058687,366.02649999999994,255.95083625974644,366.02649999999994C264.5002467611055,366.02649999999994,264.5002467611055,345.5165,273.04965726246456,345.5165C281.576679463524,345.5165,281.576679463524,308.42350000000005,290.10370166458347,308.42350000000005C298.63072386564295,308.42350000000005,298.63072386564295,293.202,307.1577460667024,293.202C315.68476826776185,293.202,315.68476826776185,252.46549999999993,324.21179046882133,252.46549999999993C332.76217437454125,252.46549999999993,332.76217437454125,217.9975,341.3125582802611,217.9975C349.8405538856814,217.9975,349.8405538856814,147.98349999999994,358.36854949110176,147.98349999999994C366.8955716921612,147.98349999999994,366.8955716921612,139.01300000000006,375.42259389322066,139.01300000000006C383.94961609428015,139.01300000000006,383.94961609428015,132.53099999999995,392.47663829533957,132.53099999999995C401.0270222010595,132.53099999999995,401.0270222010595,145.45999999999995,409.5774061067794,145.45999999999995C418.1044283078388,145.45999999999995,418.1044283078388,99.97750000000002,426.6314505088983,99.97750000000002C435.1584727099578,99.97750000000002,435.1584727099578,64.80950000000004,443.6854949110172,64.80950000000004C452.2125171120766,64.80950000000004,452.2125171120766,70.42699999999994,460.7395393131361,70.42699999999994C469.289923218856,70.42699999999994,469.289923218856,92.67300000000007,477.84030712457593,92.67300000000007C486.3673293256354,92.67300000000007,486.3673293256354,130.42749999999998,494.89435152669483,130.42749999999998C503.42137372775426,130.42749999999998,503.42137372775426,160.8845,511.94839592881374,160.8845C520.4754181298732,160.8845,520.4754181298732,157.43699999999995,529.0024403309327,157.43699999999995C537.5528242366526,157.43699999999995,537.5528242366526,190.60299999999995,546.1032081423724,190.60299999999995C554.630230343432,190.60299999999995,554.630230343432,231.36749999999995,563.1572525444915,231.36749999999995C571.684274745551,231.36749999999995,571.684274745551,298.5115,580.2112969466103,298.5115C588.7373457433089,298.5115,588.7373457433089,368.242,597.2633945400075,368.242C605.8137784457274,368.242,605.8137784457274,408.6495,614.3641623514474,408.6495C622.8921579568677,408.6495,622.8921579568677,441.21,631.420153562288,441.21C639.9471757633474,441.21,639.9471757633474,451.30050000000006,648.4741979644069,451.30050000000006C657.0012201654663,451.30050000000006,657.0012201654663,472.843619781925,665.5282423665258,472.843619781925C674.0786262722456,472.843619781925,674.0786262722456,484.94803567609,682.6290101779656,484.94803567609C691.156032379025,484.94803567609,691.156032379025,497.677992527205,699.6830545800844,497.677992527205C708.2100767811439,497.677992527205,708.2100767811439,509.34682374905,716.7370989822035,509.34682374905C725.2641211832629,509.34682374905,725.2641211832629,520.37178509533,733.7911433843224,520.37178509533C742.3415272900422,520.37178509533,742.3415272900422,522.91216730396,750.8919111957622,522.91216730396C759.4189333968216,522.91216730396,759.4189333968216,535.52094726375,767.945955597881,535.52094726375C776.4729777989405,535.52094726375,776.4729777989405,538.47063336255,785,538.47063336255L785,560C776.4729777989405,560,776.4729777989405,560,767.945955597881,560C759.4189333968216,560,759.4189333968216,560,750.8919111957622,560C742.3415272900422,560,742.3415272900422,560,733.7911433843224,560C725.2641211832629,560,725.2641211832629,560,716.7370989822035,560C708.2100767811439,560,708.2100767811439,560,699.6830545800844,560C691.156032379025,560,691.156032379025,560,682.6290101779656,560C674.0786262722456,560,674.0786262722456,560,665.5282423665258,560C657.0012201654663,560,657.0012201654663,560,648.4741979644069,560C639.9471757633474,560,639.9471757633474,560,631.420153562288,560C622.8921579568677,560,622.8921579568677,560,614.3641623514474,560C605.8137784457274,560,605.8137784457274,559.9685000000001,597.2633945400075,559.9685000000001C588.7373457433089,559.9685000000001,588.7373457433089,559.895,580.2112969466103,559.895C571.684274745551,559.895,571.684274745551,559.8705,563.1572525444915,559.8705C554.630230343432,559.8705,554.630230343432,559.5415,546.1032081423724,559.5415C537.5528242366526,559.5415,537.5528242366526,559.1705000000001,529.0024403309327,559.1705000000001C520.4754181298732,559.1705000000001,520.4754181298732,556.2165,511.94839592881374,556.2165C503.42137372775426,556.2165,503.42137372775426,552.657,494.89435152669483,552.657C486.3673293256354,552.657,486.3673293256354,547.281,477.84030712457593,547.281C469.289923218856,547.281,469.289923218856,537.929,460.7395393131361,537.929C452.2125171120766,537.929,452.2125171120766,521.164,443.6854949110172,521.164C435.1584727099578,521.164,435.1584727099578,506.9995,426.6314505088983,506.9995C418.1044283078388,506.9995,418.1044283078388,502.033,409.5774061067794,502.033C401.0270222010595,502.033,401.0270222010595,486.689,392.47663829533957,486.689C383.94961609428015,486.689,383.94961609428015,471.1035,375.42259389322066,471.1035C366.8955716921612,471.1035,366.8955716921612,446.2045,358.36854949110176,446.2045C349.8405538856814,446.2045,349.8405538856814,447.4995,341.3125582802611,447.4995C332.76217437454125,447.4995,332.76217437454125,440.4715,324.21179046882133,440.4715C315.68476826776185,440.4715,315.68476826776185,446.25,307.1577460667024,446.25C298.63072386564295,446.25,298.63072386564295,429.4395,290.10370166458347,429.4395C281.576679463524,429.4395,281.576679463524,436.086,273.04965726246456,436.086C264.5002467611055,436.086,264.5002467611055,439.516,255.95083625974644,439.516C247.423814058687,439.516,247.423814058687,455.90999999999997,238.89679185762753,455.90999999999997C230.36976965656805,455.90999999999997,230.36976965656805,472.51750000000004,221.8427474555086,472.51750000000004C213.31572525444915,472.51750000000004,213.31572525444915,475.59749999999997,204.7887030533897,475.59749999999997C196.2383191476698,475.59749999999997,196.2383191476698,476.5635,187.6879352419499,476.5635C179.16091304089042,476.5635,179.16091304089042,496.6185,170.63389083983097,496.6185C162.10686863877152,496.6185,162.10686863877152,510.28249999999997,153.57984643771204,510.28249999999997C145.05282423665255,510.28249999999997,145.05282423665255,511.847,136.5258020355931,511.847C127.97541812987322,511.847,127.97541812987322,516.88,119.42503422415332,516.88C110.89801202309387,516.88,110.89801202309387,515.7284999999999,102.37098982203442,515.7284999999999C93.84396762097495,515.7284999999999,93.84396762097495,511.077,85.31694541991548,511.077C76.78992321885602,511.077,76.78992321885602,522.879,68.26290101779655,522.879C59.712517112076654,522.879,59.712517112076654,530.985,51.162133206356756,530.985C42.635111005297304,530.985,42.635111005297304,535.78,34.108088804237845,535.78C25.581066603178385,535.78,25.581066603178385,537.2605,17.054044402118922,537.2605C8.527022201059461,537.2605,8.527022201059461,539.679,0,539.679Z"><title>Disc</title></path><path fill="#ff7f0e" d="M0,539.679C8.527022201059461,539.679,8.527022201059461,537.2605,17.054044402118922,537.2605C25.581066603178385,537.2605,25.581066603178385,535.78,34.108088804237845,535.78C42.635111005297304,535.78,42.635111005297304,530.985,51.162133206356756,530.985C59.712517112076654,530.985,59.712517112076654,522.879,68.26290101779655,522.879C76.78992321885602,522.879,76.78992321885602,511.077,85.31694541991548,511.077C93.84396762097495,511.077,93.84396762097495,515.7284999999999,102.37098982203442,515.7284999999999C110.89801202309387,515.7284999999999,110.89801202309387,516.88,119.42503422415332,516.88C127.97541812987322,516.88,127.97541812987322,511.847,136.5258020355931,511.847C145.05282423665255,511.847,145.05282423665255,510.28249999999997,153.57984643771204,510.28249999999997C162.10686863877152,510.28249999999997,162.10686863877152,496.0165,170.63389083983097,496.0165C179.16091304089042,496.0165,179.16091304089042,472.94800000000004,187.6879352419499,472.94800000000004C196.2383191476698,472.94800000000004,196.2383191476698,461.965,204.7887030533897,461.965C213.31572525444915,461.965,213.31572525444915,439.964,221.8427474555086,439.964C230.36976965656805,439.964,230.36976965656805,400.13399999999996,238.89679185762753,400.13399999999996C247.423814058687,400.13399999999996,247.423814058687,366.02649999999994,255.95083625974644,366.02649999999994C264.5002467611055,366.02649999999994,264.5002467611055,345.5165,273.04965726246456,345.5165C281.576679463524,345.5165,281.576679463524,308.42350000000005,290.10370166458347,308.42350000000005C298.63072386564295,308.42350000000005,298.63072386564295,293.202,307.1577460667024,293.202C315.68476826776185,293.202,315.68476826776185,252.46549999999993,324.21179046882133,252.46549999999993C332.76217437454125,252.46549999999993,332.76217437454125,217.9975,341.3125582802611,217.9975C349.8405538856814,217.9975,349.8405538856814,147.98349999999994,358.36854949110176,147.98349999999994C366.8955716921612,147.98349999999994,366.8955716921612,139.01300000000006,375.42259389322066,139.01300000000006C383.94961609428015,139.01300000000006,383.94961609428015,132.53099999999995,392.47663829533957,132.53099999999995C401.0270222010595,132.53099999999995,401.0270222010595,145.45999999999995,409.5774061067794,145.45999999999995C418.1044283078388,145.45999999999995,418.1044283078388,99.97750000000002,426.6314505088983,99.97750000000002C435.1584727099578,99.97750000000002,435.1584727099578,64.80950000000004,443.6854949110172,64.80950000000004C452.2125171120766,64.80950000000004,452.2125171120766,70.42699999999994,460.7395393131361,70.42699999999994C469.289923218856,70.42699999999994,469.289923218856,92.67300000000007,477.84030712457593,92.67300000000007C486.3673293256354,92.67300000000007,486.3673293256354,130.42749999999998,494.89435152669483,130.42749999999998C503.42137372775426,130.42749999999998,503.42137372775426,160.8845,511.94839592881374,160.8845C520.4754181298732,160.8845,520.4754181298732,151.01449999999994,529.0024403309327,151.01449999999994C537.5528242366526,151.01449999999994,537.5528242366526,158.2525,546.1032081423724,158.2525C554.630230343432,158.2525,554.630230343432,173.61749999999992,563.1572525444915,173.61749999999992C571.684274745551,173.61749999999992,571.684274745551,214.7775,580.2112969466103,214.7775C588.7373457433089,214.7775,588.7373457433089,274.2355,597.2633945400075,274.2355C605.8137784457274,274.2355,605.8137784457274,315.54949999999997,614.3641623514474,315.54949999999997C622.8921579568677,315.54949999999997,622.8921579568677,346.94100000000003,631.420153562288,346.94100000000003C639.9471757633474,346.94100000000003,639.9471757633474,349.7375,648.4741979644069,349.7375C657.0012201654663,349.7375,657.0012201654663,367.275637503425,665.5282423665258,367.275637503425C674.0786262722456,367.275637503425,674.0786262722456,382.73751238954,682.6290101779656,382.73751238954C691.156032379025,382.73751238954,691.156032379025,408.318803423755,699.6830545800844,408.318803423755C708.2100767811439,408.318803423755,708.2100767811439,428.47345616635005,716.7370989822035,428.47345616635005C725.2641211832629,428.47345616635005,725.2641211832629,455.74386118863,733.7911433843224,455.74386118863C742.3415272900422,455.74386118863,742.3415272900422,473.834809596645,750.8919111957622,473.834809596645C759.4189333968216,473.834809596645,759.4189333968216,499.22246244080003,767.945955597881,499.22246244080003C776.4729777989405,499.22246244080003,776.4729777989405,508.57573057963003,785,508.57573057963003L785,538.47063336255C776.4729777989405,538.47063336255,776.4729777989405,535.52094726375,767.945955597881,535.52094726375C759.4189333968216,535.52094726375,759.4189333968216,522.91216730396,750.8919111957622,522.91216730396C742.3415272900422,522.91216730396,742.3415272900422,520.37178509533,733.7911433843224,520.37178509533C725.2641211832629,520.37178509533,725.2641211832629,509.34682374905,716.7370989822035,509.34682374905C708.2100767811439,509.34682374905,708.2100767811439,497.677992527205,699.6830545800844,497.677992527205C691.156032379025,497.677992527205,691.156032379025,484.94803567609,682.6290101779656,484.94803567609C674.0786262722456,484.94803567609,674.0786262722456,472.843619781925,665.5282423665258,472.843619781925C657.0012201654663,472.843619781925,657.0012201654663,451.30050000000006,648.4741979644069,451.30050000000006C639.9471757633474,451.30050000000006,639.9471757633474,441.21,631.420153562288,441.21C622.8921579568677,441.21,622.8921579568677,408.6495,614.3641623514474,408.6495C605.8137784457274,408.6495,605.8137784457274,368.242,597.2633945400075,368.242C588.7373457433089,368.242,588.7373457433089,298.5115,580.2112969466103,298.5115C571.684274745551,298.5115,571.684274745551,231.36749999999995,563.1572525444915,231.36749999999995C554.630230343432,231.36749999999995,554.630230343432,190.60299999999995,546.1032081423724,190.60299999999995C537.5528242366526,190.60299999999995,537.5528242366526,157.43699999999995,529.0024403309327,157.43699999999995C520.4754181298732,157.43699999999995,520.4754181298732,160.8845,511.94839592881374,160.8845C503.42137372775426,160.8845,503.42137372775426,130.42749999999998,494.89435152669483,130.42749999999998C486.3673293256354,130.42749999999998,486.3673293256354,92.67300000000007,477.84030712457593,92.67300000000007C469.289923218856,92.67300000000007,469.289923218856,70.42699999999994,460.7395393131361,70.42699999999994C452.2125171120766,70.42699999999994,452.2125171120766,64.80950000000004,443.6854949110172,64.80950000000004C435.1584727099578,64.80950000000004,435.1584727099578,99.97750000000002,426.6314505088983,99.97750000000002C418.1044283078388,99.97750000000002,418.1044283078388,145.45999999999995,409.5774061067794,145.45999999999995C401.0270222010595,145.45999999999995,401.0270222010595,132.53099999999995,392.47663829533957,132.53099999999995C383.94961609428015,132.53099999999995,383.94961609428015,139.01300000000006,375.42259389322066,139.01300000000006C366.8955716921612,139.01300000000006,366.8955716921612,147.98349999999994,358.36854949110176,147.98349999999994C349.8405538856814,147.98349999999994,349.8405538856814,217.9975,341.3125582802611,217.9975C332.76217437454125,217.9975,332.76217437454125,252.46549999999993,324.21179046882133,252.46549999999993C315.68476826776185,252.46549999999993,315.68476826776185,293.202,307.1577460667024,293.202C298.63072386564295,293.202,298.63072386564295,308.42350000000005,290.10370166458347,308.42350000000005C281.576679463524,308.42350000000005,281.576679463524,345.5165,273.04965726246456,345.5165C264.5002467611055,345.5165,264.5002467611055,366.02649999999994,255.95083625974644,366.02649999999994C247.423814058687,366.02649999999994,247.423814058687,400.13399999999996,238.89679185762753,400.13399999999996C230.36976965656805,400.13399999999996,230.36976965656805,439.964,221.8427474555086,439.964C213.31572525444915,439.964,213.31572525444915,461.965,204.7887030533897,461.965C196.2383191476698,461.965,196.2383191476698,472.94800000000004,187.6879352419499,472.94800000000004C179.16091304089042,472.94800000000004,179.16091304089042,496.0165,170.63389083983097,496.0165C162.10686863877152,496.0165,162.10686863877152,510.28249999999997,153.57984643771204,510.28249999999997C145.05282423665255,510.28249999999997,145.05282423665255,511.847,136.5258020355931,511.847C127.97541812987322,511.847,127.97541812987322,516.88,119.42503422415332,516.88C110.89801202309387,516.88,110.89801202309387,515.7284999999999,102.37098982203442,515.7284999999999C93.84396762097495,515.7284999999999,93.84396762097495,511.077,85.31694541991548,511.077C76.78992321885602,511.077,76.78992321885602,522.879,68.26290101779655,522.879C59.712517112076654,522.879,59.712517112076654,530.985,51.162133206356756,530.985C42.635111005297304,530.985,42.635111005297304,535.78,34.108088804237845,535.78C25.581066603178385,535.78,25.581066603178385,537.2605,17.054044402118922,537.2605C8.527022201059461,537.2605,8.527022201059461,539.679,0,539.679Z"><title>Download</title></path><path fill="#2ca02c" d="M0,539.679C8.527022201059461,539.679,8.527022201059461,537.2605,17.054044402118922,537.2605C25.581066603178385,537.2605,25.581066603178385,535.78,34.108088804237845,535.78C42.635111005297304,535.78,42.635111005297304,530.985,51.162133206356756,530.985C59.712517112076654,530.985,59.712517112076654,522.879,68.26290101779655,522.879C76.78992321885602,522.879,76.78992321885602,511.077,85.31694541991548,511.077C93.84396762097495,511.077,93.84396762097495,515.7284999999999,102.37098982203442,515.7284999999999C110.89801202309387,515.7284999999999,110.89801202309387,516.88,119.42503422415332,516.88C127.97541812987322,516.88,127.97541812987322,511.847,136.5258020355931,511.847C145.05282423665255,511.847,145.05282423665255,510.28249999999997,153.57984643771204,510.28249999999997C162.10686863877152,510.28249999999997,162.10686863877152,496.0165,170.63389083983097,496.0165C179.16091304089042,496.0165,179.16091304089042,472.94800000000004,187.6879352419499,472.94800000000004C196.2383191476698,472.94800000000004,196.2383191476698,461.965,204.7887030533897,461.965C213.31572525444915,461.965,213.31572525444915,439.964,221.8427474555086,439.964C230.36976965656805,439.964,230.36976965656805,400.13399999999996,238.89679185762753,400.13399999999996C247.423814058687,400.13399999999996,247.423814058687,366.02649999999994,255.95083625974644,366.02649999999994C264.5002467611055,366.02649999999994,264.5002467611055,341.47749999999996,273.04965726246456,341.47749999999996C281.576679463524,341.47749999999996,281.576679463524,302.39300000000003,290.10370166458347,302.39300000000003C298.63072386564295,302.39300000000003,298.63072386564295,289.06850000000003,307.1577460667024,289.06850000000003C315.68476826776185,289.06850000000003,315.68476826776185,246.95649999999998,324.21179046882133,246.95649999999998C332.76217437454125,246.95649999999998,332.76217437454125,210.532,341.3125582802611,210.532C349.8405538856814,210.532,349.8405538856814,139.89499999999992,358.36854949110176,139.89499999999992C366.8955716921612,139.89499999999992,366.8955716921612,131.30250000000007,375.42259389322066,131.30250000000007C383.94961609428015,131.30250000000007,383.94961609428015,124.26749999999993,392.47663829533957,124.26749999999993C401.0270222010595,124.26749999999993,401.0270222010595,134.12349999999995,409.5774061067794,134.12349999999995C418.1044283078388,134.12349999999995,418.1044283078388,82.19749999999999,426.6314505088983,82.19749999999999C435.1584727099578,82.19749999999999,435.1584727099578,51.624999999999986,443.6854949110172,51.624999999999986C452.2125171120766,51.624999999999986,452.2125171120766,60.56049999999999,460.7395393131361,60.56049999999999C469.289923218856,60.56049999999999,469.289923218856,80.94099999999999,477.84030712457593,80.94099999999999C486.3673293256354,80.94099999999999,486.3673293256354,120.03600000000003,494.89435152669483,120.03600000000003C503.42137372775426,120.03600000000003,503.42137372775426,146.608,511.94839592881374,146.608C520.4754181298732,146.608,520.4754181298732,129.53499999999997,529.0024403309327,129.53499999999997C537.5528242366526,129.53499999999997,537.5528242366526,136.74849999999998,546.1032081423724,136.74849999999998C554.630230343432,136.74849999999998,554.630230343432,157.67849999999996,563.1572525444915,157.67849999999996C571.684274745551,157.67849999999996,571.684274745551,197.61700000000002,580.2112969466103,197.61700000000002C588.7373457433089,197.61700000000002,588.7373457433089,266.14699999999993,597.2633945400075,266.14699999999993C605.8137784457274,266.14699999999993,605.8137784457274,300.89500000000004,614.3641623514474,300.89500000000004C622.8921579568677,300.89500000000004,622.8921579568677,333.865,631.420153562288,333.865C639.9471757633474,333.865,639.9471757633474,337.46999999999997,648.4741979644069,337.46999999999997C657.0012201654663,337.46999999999997,657.0012201654663,356.38893721770495,665.5282423665258,356.38893721770495C674.0786262722456,356.38893721770495,674.0786262722456,372.1623962365401,682.6290101779656,372.1623962365401C691.156032379025,372.1623962365401,691.156032379025,398.373876269915,699.6830545800844,398.373876269915C708.2100767811439,398.373876269915,708.2100767811439,418.58644827919494,716.7370989822035,418.58644827919494C725.2641211832629,418.58644827919494,725.2641211832629,446.029914569295,733.7911433843224,446.029914569295C742.3415272900422,446.029914569295,742.3415272900422,464.18994521721504,750.8919111957622,464.18994521721504C759.4189333968216,464.18994521721504,759.4189333968216,488.079961100515,767.945955597881,488.079961100515C776.4729777989405,488.079961100515,776.4729777989405,497.843982253345,785,497.843982253345L785,508.57573057963003C776.4729777989405,508.57573057963003,776.4729777989405,499.22246244080003,767.945955597881,499.22246244080003C759.4189333968216,499.22246244080003,759.4189333968216,473.834809596645,750.8919111957622,473.834809596645C742.3415272900422,473.834809596645,742.3415272900422,455.74386118863,733.7911433843224,455.74386118863C725.2641211832629,455.74386118863,725.2641211832629,428.47345616635005,716.7370989822035,428.47345616635005C708.2100767811439,428.47345616635005,708.2100767811439,408.318803423755,699.6830545800844,408.318803423755C691.156032379025,408.318803423755,691.156032379025,382.73751238954,682.6290101779656,382.73751238954C674.0786262722456,382.73751238954,674.0786262722456,367.275637503425,665.5282423665258,367.275637503425C657.0012201654663,367.275637503425,657.0012201654663,349.7375,648.4741979644069,349.7375C639.9471757633474,349.7375,639.9471757633474,346.94100000000003,631.420153562288,346.94100000000003C622.8921579568677,346.94100000000003,622.8921579568677,315.54949999999997,614.3641623514474,315.54949999999997C605.8137784457274,315.54949999999997,605.8137784457274,274.2355,597.2633945400075,274.2355C588.7373457433089,274.2355,588.7373457433089,214.7775,580.2112969466103,214.7775C571.684274745551,214.7775,571.684274745551,173.61749999999992,563.1572525444915,173.61749999999992C554.630230343432,173.61749999999992,554.630230343432,158.2525,546.1032081423724,158.2525C537.5528242366526,158.2525,537.5528242366526,151.01449999999994,529.0024403309327,151.01449999999994C520.4754181298732,151.01449999999994,520.4754181298732,160.8845,511.94839592881374,160.8845C503.42137372775426,160.8845,503.42137372775426,130.42749999999998,494.89435152669483,130.42749999999998C486.3673293256354,130.42749999999998,486.3673293256354,92.67300000000007,477.84030712457593,92.67300000000007C469.289923218856,92.67300000000007,469.289923218856,70.42699999999994,460.7395393131361,70.42699999999994C452.2125171120766,70.42699999999994,452.2125171120766,64.80950000000004,443.6854949110172,64.80950000000004C435.1584727099578,64.80950000000004,435.1584727099578,99.97750000000002,426.6314505088983,99.97750000000002C418.1044283078388,99.97750000000002,418.1044283078388,145.45999999999995,409.5774061067794,145.45999999999995C401.0270222010595,145.45999999999995,401.0270222010595,132.53099999999995,392.47663829533957,132.53099999999995C383.94961609428015,132.53099999999995,383.94961609428015,139.01300000000006,375.42259389322066,139.01300000000006C366.8955716921612,139.01300000000006,366.8955716921612,147.98349999999994,358.36854949110176,147.98349999999994C349.8405538856814,147.98349999999994,349.8405538856814,217.9975,341.3125582802611,217.9975C332.76217437454125,217.9975,332.76217437454125,252.46549999999993,324.21179046882133,252.46549999999993C315.68476826776185,252.46549999999993,315.68476826776185,293.202,307.1577460667024,293.202C298.63072386564295,293.202,298.63072386564295,308.42350000000005,290.10370166458347,308.42350000000005C281.576679463524,308.42350000000005,281.576679463524,345.5165,273.04965726246456,345.5165C264.5002467611055,345.5165,264.5002467611055,366.02649999999994,255.95083625974644,366.02649999999994C247.423814058687,366.02649999999994,247.423814058687,400.13399999999996,238.89679185762753,400.13399999999996C230.36976965656805,400.13399999999996,230.36976965656805,439.964,221.8427474555086,439.964C213.31572525444915,439.964,213.31572525444915,461.965,204.7887030533897,461.965C196.2383191476698,461.965,196.2383191476698,472.94800000000004,187.6879352419499,472.94800000000004C179.16091304089042,472.94800000000004,179.16091304089042,496.0165,170.63389083983097,496.0165C162.10686863877152,496.0165,162.10686863877152,510.28249999999997,153.57984643771204,510.28249999999997C145.05282423665255,510.28249999999997,145.05282423665255,511.847,136.5258020355931,511.847C127.97541812987322,511.847,127.97541812987322,516.88,119.42503422415332,516.88C110.89801202309387,516.88,110.89801202309387,515.7284999999999,102.37098982203442,515.7284999999999C93.84396762097495,515.7284999999999,93.84396762097495,511.077,85.31694541991548,511.077C76.78992321885602,511.077,76.78992321885602,522.879,68.26290101779655,522.879C59.712517112076654,522.879,59.712517112076654,530.985,51.162133206356756,530.985C42.635111005297304,530.985,42.635111005297304,535.78,34.108088804237845,535.78C25.581066603178385,535.78,25.581066603178385,537.2605,17.054044402118922,537.2605C8.527022201059461,537.2605,8.527022201059461,539.679,0,539.679Z"><title>Other</title></path><path fill="#d62728" d="M0,539.679C8.527022201059461,539.679,8.527022201059461,537.2605,17.054044402118922,537.2605C25.581066603178385,537.2605,25.581066603178385,535.78,34.108088804237845,535.78C42.635111005297304,535.78,42.635111005297304,530.985,51.162133206356756,530.985C59.712517112076654,530.985,59.712517112076654,522.879,68.26290101779655,522.879C76.78992321885602,522.879,76.78992321885602,511.077,85.31694541991548,511.077C93.84396762097495,511.077,93.84396762097495,515.7284999999999,102.37098982203442,515.7284999999999C110.89801202309387,515.7284999999999,110.89801202309387,516.88,119.42503422415332,516.88C127.97541812987322,516.88,127.97541812987322,511.847,136.5258020355931,511.847C145.05282423665255,511.847,145.05282423665255,510.28249999999997,153.57984643771204,510.28249999999997C162.10686863877152,510.28249999999997,162.10686863877152,496.0165,170.63389083983097,496.0165C179.16091304089042,496.0165,179.16091304089042,472.94800000000004,187.6879352419499,472.94800000000004C196.2383191476698,472.94800000000004,196.2383191476698,461.965,204.7887030533897,461.965C213.31572525444915,461.965,213.31572525444915,439.964,221.8427474555086,439.964C230.36976965656805,439.964,230.36976965656805,400.13399999999996,238.89679185762753,400.13399999999996C247.423814058687,400.13399999999996,247.423814058687,366.02649999999994,255.95083625974644,366.02649999999994C264.5002467611055,366.02649999999994,264.5002467611055,341.47749999999996,273.04965726246456,341.47749999999996C281.576679463524,341.47749999999996,281.576679463524,302.39300000000003,290.10370166458347,302.39300000000003C298.63072386564295,302.39300000000003,298.63072386564295,289.06850000000003,307.1577460667024,289.06850000000003C315.68476826776185,289.06850000000003,315.68476826776185,246.95649999999998,324.21179046882133,246.95649999999998C332.76217437454125,246.95649999999998,332.76217437454125,210.532,341.3125582802611,210.532C349.8405538856814,210.532,349.8405538856814,139.89499999999992,358.36854949110176,139.89499999999992C366.8955716921612,139.89499999999992,366.8955716921612,131.30250000000007,375.42259389322066,131.30250000000007C383.94961609428015,131.30250000000007,383.94961609428015,124.26749999999993,392.47663829533957,124.26749999999993C401.0270222010595,124.26749999999993,401.0270222010595,134.12349999999995,409.5774061067794,134.12349999999995C418.1044283078388,134.12349999999995,418.1044283078388,82.19749999999999,426.6314505088983,82.19749999999999C435.1584727099578,82.19749999999999,435.1584727099578,51.624999999999986,443.6854949110172,51.624999999999986C452.2125171120766,51.624999999999986,452.2125171120766,60.56049999999999,460.7395393131361,60.56049999999999C469.289923218856,60.56049999999999,469.289923218856,80.94099999999999,477.84030712457593,80.94099999999999C486.3673293256354,80.94099999999999,486.3673293256354,120.03600000000003,494.89435152669483,120.03600000000003C503.42137372775426,120.03600000000003,503.42137372775426,146.608,511.94839592881374,146.608C520.4754181298732,146.608,520.4754181298732,129.29349999999997,529.0024403309327,129.29349999999997C537.5528242366526,129.29349999999997,537.5528242366526,130.81250000000003,546.1032081423724,130.81250000000003C554.630230343432,130.81250000000003,554.630230343432,149.31349999999992,563.1572525444915,149.31349999999992C571.684274745551,149.31349999999992,571.684274745551,188.15999999999997,580.2112969466103,188.15999999999997C588.7373457433089,188.15999999999997,588.7373457433089,254.898,597.2633945400075,254.898C605.8137784457274,254.898,605.8137784457274,288.2355,614.3641623514474,288.2355C622.8921579568677,288.2355,622.8921579568677,317.709,631.420153562288,317.709C639.9471757633474,317.709,639.9471757633474,314.59399999999994,648.4741979644069,314.59399999999994C657.0012201654663,314.59399999999994,657.0012201654663,320.240309335205,665.5282423665258,320.240309335205C674.0786262722456,320.240309335205,674.0786262722456,321.25147207104,682.6290101779656,321.25147207104C691.156032379025,321.25147207104,691.156032379025,334.412637372415,699.6830545800844,334.412637372415C708.2100767811439,334.412637372415,708.2100767811439,336.990986415195,716.7370989822035,336.990986415195C725.2641211832629,336.990986415195,725.2641211832629,307.35794013459497,733.7911433843224,307.35794013459497C742.3415272900422,307.35794013459497,742.3415272900422,265.93089604371494,750.8919111957622,265.93089604371494C759.4189333968216,265.93089604371494,759.4189333968216,230.24309106851499,767.945955597881,230.24309106851499C776.4729777989405,230.24309106851499,776.4729777989405,188.748118067845,785,188.748118067845L785,497.843982253345C776.4729777989405,497.843982253345,776.4729777989405,488.079961100515,767.945955597881,488.079961100515C759.4189333968216,488.079961100515,759.4189333968216,464.18994521721504,750.8919111957622,464.18994521721504C742.3415272900422,464.18994521721504,742.3415272900422,446.029914569295,733.7911433843224,446.029914569295C725.2641211832629,446.029914569295,725.2641211832629,418.58644827919494,716.7370989822035,418.58644827919494C708.2100767811439,418.58644827919494,708.2100767811439,398.373876269915,699.6830545800844,398.373876269915C691.156032379025,398.373876269915,691.156032379025,372.1623962365401,682.6290101779656,372.1623962365401C674.0786262722456,372.1623962365401,674.0786262722456,356.38893721770495,665.5282423665258,356.38893721770495C657.0012201654663,356.38893721770495,657.0012201654663,337.46999999999997,648.4741979644069,337.46999999999997C639.9471757633474,337.46999999999997,639.9471757633474,333.865,631.420153562288,333.865C622.8921579568677,333.865,622.8921579568677,300.89500000000004,614.3641623514474,300.89500000000004C605.8137784457274,300.89500000000004,605.8137784457274,266.14699999999993,597.2633945400075,266.14699999999993C588.7373457433089,266.14699999999993,588.7373457433089,197.61700000000002,580.2112969466103,197.61700000000002C571.684274745551,197.61700000000002,571.684274745551,157.67849999999996,563.1572525444915,157.67849999999996C554.630230343432,157.67849999999996,554.630230343432,136.74849999999998,546.1032081423724,136.74849999999998C537.5528242366526,136.74849999999998,537.5528242366526,129.53499999999997,529.0024403309327,129.53499999999997C520.4754181298732,129.53499999999997,520.4754181298732,146.608,511.94839592881374,146.608C503.42137372775426,146.608,503.42137372775426,120.03600000000003,494.89435152669483,120.03600000000003C486.3673293256354,120.03600000000003,486.3673293256354,80.94099999999999,477.84030712457593,80.94099999999999C469.289923218856,80.94099999999999,469.289923218856,60.56049999999999,460.7395393131361,60.56049999999999C452.2125171120766,60.56049999999999,452.2125171120766,51.624999999999986,443.6854949110172,51.624999999999986C435.1584727099578,51.624999999999986,435.1584727099578,82.19749999999999,426.6314505088983,82.19749999999999C418.1044283078388,82.19749999999999,418.1044283078388,134.12349999999995,409.5774061067794,134.12349999999995C401.0270222010595,134.12349999999995,401.0270222010595,124.26749999999993,392.47663829533957,124.26749999999993C383.94961609428015,124.26749999999993,383.94961609428015,131.30250000000007,375.42259389322066,131.30250000000007C366.8955716921612,131.30250000000007,366.8955716921612,139.89499999999992,358.36854949110176,139.89499999999992C349.8405538856814,139.89499999999992,349.8405538856814,210.532,341.3125582802611,210.532C332.76217437454125,210.532,332.76217437454125,246.95649999999998,324.21179046882133,246.95649999999998C315.68476826776185,246.95649999999998,315.68476826776185,289.06850000000003,307.1577460667024,289.06850000000003C298.63072386564295,289.06850000000003,298.63072386564295,302.39300000000003,290.10370166458347,302.39300000000003C281.576679463524,302.39300000000003,281.576679463524,341.47749999999996,273.04965726246456,341.47749999999996C264.5002467611055,341.47749999999996,264.5002467611055,366.02649999999994,255.95083625974644,366.02649999999994C247.423814058687,366.02649999999994,247.423814058687,400.13399999999996,238.89679185762753,400.13399999999996C230.36976965656805,400.13399999999996,230.36976965656805,439.964,221.8427474555086,439.964C213.31572525444915,439.964,213.31572525444915,461.965,204.7887030533897,461.965C196.2383191476698,461.965,196.2383191476698,472.94800000000004,187.6879352419499,472.94800000000004C179.16091304089042,472.94800000000004,179.16091304089042,496.0165,170.63389083983097,496.0165C162.10686863877152,496.0165,162.10686863877152,510.28249999999997,153.57984643771204,510.28249999999997C145.05282423665255,510.28249999999997,145.05282423665255,511.847,136.5258020355931,511.847C127.97541812987322,511.847,127.97541812987322,516.88,119.42503422415332,516.88C110.89801202309387,516.88,110.89801202309387,515.7284999999999,102.37098982203442,515.7284999999999C93.84396762097495,515.7284999999999,93.84396762097495,511.077,85.31694541991548,511.077C76.78992321885602,511.077,76.78992321885602,522.879,68.26290101779655,522.879C59.712517112076654,522.879,59.712517112076654,530.985,51.162133206356756,530.985C42.635111005297304,530.985,42.635111005297304,535.78,34.108088804237845,535.78C25.581066603178385,535.78,25.581066603178385,537.2605,17.054044402118922,537.2605C8.527022201059461,537.2605,8.527022201059461,539.679,0,539.679Z"><title>Streaming</title></path><path fill="#8c564b" d="M0,489.419C8.527022201059461,489.419,8.527022201059461,483.0105,17.054044402118922,483.0105C25.581066603178385,483.0105,25.581066603178385,476.4025,34.108088804237845,476.4025C42.635111005297304,476.4025,42.635111005297304,464.2015,51.162133206356756,464.2015C59.712517112076654,464.2015,59.712517112076654,437.472,68.26290101779655,437.472C76.78992321885602,437.472,76.78992321885602,415.401,85.31694541991548,415.401C93.84396762097495,415.401,93.84396762097495,431.3575,102.37098982203442,431.3575C110.89801202309387,431.3575,110.89801202309387,431.13,119.42503422415332,431.13C127.97541812987322,431.13,127.97541812987322,420.9135,136.5258020355931,420.9135C145.05282423665255,420.9135,145.05282423665255,432.99899999999997,153.57984643771204,432.99899999999997C162.10686863877152,432.99899999999997,162.10686863877152,427.476,170.63389083983097,427.476C179.16091304089042,427.476,179.16091304089042,408.28549999999996,187.6879352419499,408.28549999999996C196.2383191476698,408.28549999999996,196.2383191476698,407.3125,204.7887030533897,407.3125C213.31572525444915,407.3125,213.31572525444915,397.57550000000003,221.8427474555086,397.57550000000003C230.36976965656805,397.57550000000003,230.36976965656805,365.26,238.89679185762753,365.26C247.423814058687,365.26,247.423814058687,341.0855,255.95083625974644,341.0855C264.5002467611055,341.0855,264.5002467611055,329.69300000000004,273.04965726246456,329.69300000000004C281.576679463524,329.69300000000004,281.576679463524,296.0615,290.10370166458347,296.0615C298.63072386564295,296.0615,298.63072386564295,285.80299999999994,307.1577460667024,285.80299999999994C315.68476826776185,285.80299999999994,315.68476826776185,244.16000000000003,324.21179046882133,244.16000000000003C332.76217437454125,244.16000000000003,332.76217437454125,208.36900000000009,341.3125582802611,208.36900000000009C349.8405538856814,208.36900000000009,349.8405538856814,137.61999999999995,358.36854949110176,137.61999999999995C366.8955716921612,137.61999999999995,366.8955716921612,128.7895000000001,375.42259389322066,128.7895000000001C383.94961609428015,128.7895000000001,383.94961609428015,121.31699999999996,392.47663829533957,121.31699999999996C401.0270222010595,121.31699999999996,401.0270222010595,131.712,409.5774061067794,131.712C418.1044283078388,131.712,418.1044283078388,80.10799999999995,426.6314505088983,80.10799999999995C435.1584727099578,80.10799999999995,435.1584727099578,49.53549999999994,443.6854949110172,49.53549999999994C452.2125171120766,49.53549999999994,452.2125171120766,58.67049999999998,460.7395393131361,58.67049999999998C469.289923218856,58.67049999999998,469.289923218856,78.88300000000007,477.84030712457593,78.88300000000007C486.3673293256354,78.88300000000007,486.3673293256354,118.447,494.89435152669483,118.447C503.42137372775426,118.447,503.42137372775426,145.096,511.94839592881374,145.096C520.4754181298732,145.096,520.4754181298732,127.92149999999992,529.0024403309327,127.92149999999992C537.5528242366526,127.92149999999992,537.5528242366526,129.85350000000003,546.1032081423724,129.85350000000003C554.630230343432,129.85350000000003,554.630230343432,148.41749999999996,563.1572525444915,148.41749999999996C571.684274745551,148.41749999999996,571.684274745551,187.2185,580.2112969466103,187.2185C588.7373457433089,187.2185,588.7373457433089,252.81199999999995,597.2633945400075,252.81199999999995C605.8137784457274,252.81199999999995,605.8137784457274,285.915,614.3641623514474,285.915C622.8921579568677,285.915,622.8921579568677,314.517,631.420153562288,314.517C639.9471757633474,314.517,639.9471757633474,310.254,648.4741979644069,310.254C657.0012201654663,310.254,657.0012201654663,314.44899533845,665.5282423665258,314.44899533845C674.0786262722456,314.44899533845,674.0786262722456,313.771342484775,682.6290101779656,313.771342484775C691.156032379025,313.771342484775,691.156032379025,325.685520281765,699.6830545800844,325.685520281765C708.2100767811439,325.685520281765,708.2100767811439,325.121340263825,716.7370989822035,325.121340263825C725.2641211832629,325.121340263825,725.2641211832629,294.7470351604799,733.7911433843224,294.7470351604799C742.3415272900422,294.7470351604799,742.3415272900422,252.12026376946494,750.8919111957622,252.12026376946494C759.4189333968216,252.12026376946494,759.4189333968216,215.38509112574997,767.945955597881,215.38509112574997C776.4729777989405,215.38509112574997,776.4729777989405,171.09464774079996,785,171.09464774079996L785,188.748118067845C776.4729777989405,188.748118067845,776.4729777989405,230.24309106851499,767.945955597881,230.24309106851499C759.4189333968216,230.24309106851499,759.4189333968216,265.93089604371494,750.8919111957622,265.93089604371494C742.3415272900422,265.93089604371494,742.3415272900422,307.35794013459497,733.7911433843224,307.35794013459497C725.2641211832629,307.35794013459497,725.2641211832629,336.990986415195,716.7370989822035,336.990986415195C708.2100767811439,336.990986415195,708.2100767811439,334.412637372415,699.6830545800844,334.412637372415C691.156032379025,334.412637372415,691.156032379025,321.25147207104,682.6290101779656,321.25147207104C674.0786262722456,321.25147207104,674.0786262722456,320.240309335205,665.5282423665258,320.240309335205C657.0012201654663,320.240309335205,657.0012201654663,314.59399999999994,648.4741979644069,314.59399999999994C639.9471757633474,314.59399999999994,639.9471757633474,317.709,631.420153562288,317.709C622.8921579568677,317.709,622.8921579568677,288.2355,614.3641623514474,288.2355C605.8137784457274,288.2355,605.8137784457274,254.898,597.2633945400075,254.898C588.7373457433089,254.898,588.7373457433089,188.15999999999997,580.2112969466103,188.15999999999997C571.684274745551,188.15999999999997,571.684274745551,149.31349999999992,563.1572525444915,149.31349999999992C554.630230343432,149.31349999999992,554.630230343432,130.81250000000003,546.1032081423724,130.81250000000003C537.5528242366526,130.81250000000003,537.5528242366526,129.29349999999997,529.0024403309327,129.29349999999997C520.4754181298732,129.29349999999997,520.4754181298732,146.608,511.94839592881374,146.608C503.42137372775426,146.608,503.42137372775426,120.03600000000003,494.89435152669483,120.03600000000003C486.3673293256354,120.03600000000003,486.3673293256354,80.94099999999999,477.84030712457593,80.94099999999999C469.289923218856,80.94099999999999,469.289923218856,60.56049999999999,460.7395393131361,60.56049999999999C452.2125171120766,60.56049999999999,452.2125171120766,51.624999999999986,443.6854949110172,51.624999999999986C435.1584727099578,51.624999999999986,435.1584727099578,82.19749999999999,426.6314505088983,82.19749999999999C418.1044283078388,82.19749999999999,418.1044283078388,134.12349999999995,409.5774061067794,134.12349999999995C401.0270222010595,134.12349999999995,401.0270222010595,124.26749999999993,392.47663829533957,124.26749999999993C383.94961609428015,124.26749999999993,383.94961609428015,131.30250000000007,375.42259389322066,131.30250000000007C366.8955716921612,131.30250000000007,366.8955716921612,139.89499999999992,358.36854949110176,139.89499999999992C349.8405538856814,139.89499999999992,349.8405538856814,210.532,341.3125582802611,210.532C332.76217437454125,210.532,332.76217437454125,246.95649999999998,324.21179046882133,246.95649999999998C315.68476826776185,246.95649999999998,315.68476826776185,289.06850000000003,307.1577460667024,289.06850000000003C298.63072386564295,289.06850000000003,298.63072386564295,302.39300000000003,290.10370166458347,302.39300000000003C281.576679463524,302.39300000000003,281.576679463524,341.47749999999996,273.04965726246456,341.47749999999996C264.5002467611055,341.47749999999996,264.5002467611055,366.02649999999994,255.95083625974644,366.02649999999994C247.423814058687,366.02649999999994,247.423814058687,400.13399999999996,238.89679185762753,400.13399999999996C230.36976965656805,400.13399999999996,230.36976965656805,439.964,221.8427474555086,439.964C213.31572525444915,439.964,213.31572525444915,461.965,204.7887030533897,461.965C196.2383191476698,461.965,196.2383191476698,472.94800000000004,187.6879352419499,472.94800000000004C179.16091304089042,472.94800000000004,179.16091304089042,496.0165,170.63389083983097,496.0165C162.10686863877152,496.0165,162.10686863877152,510.28249999999997,153.57984643771204,510.28249999999997C145.05282423665255,510.28249999999997,145.05282423665255,511.847,136.5258020355931,511.847C127.97541812987322,511.847,127.97541812987322,516.88,119.42503422415332,516.88C110.89801202309387,516.88,110.89801202309387,515.7284999999999,102.37098982203442,515.7284999999999C93.84396762097495,515.7284999999999,93.84396762097495,511.077,85.31694541991548,511.077C76.78992321885602,511.077,76.78992321885602,522.879,68.26290101779655,522.879C59.712517112076654,522.879,59.712517112076654,530.985,51.162133206356756,530.985C42.635111005297304,530.985,42.635111005297304,535.78,34.108088804237845,535.78C25.581066603178385,535.78,25.581066603178385,537.2605,17.054044402118922,537.2605C8.527022201059461,537.2605,8.527022201059461,539.679,0,539.679Z"><title>Vinyl</title></path></g><g id="xAxis" transform="translate(0,560)" fill="none" font-size="10" font-family="sans-serif" text-anchor="middle"><path class="domain" stroke="currentColor" d="M0.5,0.5H785.5"/><g class="tick" opacity="1" transform="translate(34.608088804237845,0)"><line stroke="currentColor" y2="6"/><text fill="currentColor" y="9" dy="0.71em">1975</text></g><g class="tick" opacity="1" transform="translate(119.92503422415332,0)"><line stroke="currentColor" y2="6"/><text fill="currentColor" y="9" dy="0.71em">1980</text></g><g class="tick" opacity="1" transform="translate(205.2887030533897,0)"><line stroke="currentColor" y2="6"/><text fill="currentColor" y="9" dy="0.71em">1985</text></g><g class="tick" opacity="1" transform="translate(290.60370166458347,0)"><line stroke="currentColor" y2="6"/><text fill="currentColor" y="9" dy="0.71em">1990</text></g><g class="tick" opacity="1" transform="translate(375.92259389322066,0)"><line stroke="currentColor" y2="6"/><text fill="currentColor" y="9" dy="0.71em">1995</text></g><g class="tick" opacity="1" transform="translate(461.2395393131361,0)"><line stroke="currentColor" y2="6"/><text fill="currentColor" y="9" dy="0.71em">2000</text></g><g class="tick" opacity="1" transform="translate(546.6032081423724,0)"><line stroke="currentColor" y2="6"/><text fill="currentColor" y="9" dy="0.71em">2005</text></g><g class="tick" opacity="1" transform="translate(631.920153562288,0)"><line stroke="currentColor" y2="6"/><text fill="currentColor" y="9" dy="0.71em">2010</text></g><g class="tick" opacity="1" transform="translate(717.2370989822035,0)"><line stroke="currentColor" y2="6"/><text fill="currentColor" y="9" dy="0.71em">2015</text></g></g><text y="556" x="785" text-anchor="end" style="font-family: Arial, sans-serif; font-size: 12px; fill: rgb(123, 123, 123); font-weight: bold;">Year</text><text x="4" text-anchor="start" dominant-baseline="hanging" style="font-family: Arial, sans-serif; font-size: 12px; fill: rgb(123, 123, 123); font-weight: bold;">Revenues in millions</text><g id="labels"><text x="290.10370166458347" y="494.71975" text-anchor="middle" alignment-baseline="middle" style="font-family: Arial, sans-serif; font-size: 10px; fill: black; font-weight: bold;">Tape</text><text x="460.7395393131361" y="304.178" text-anchor="middle" alignment-baseline="middle" style="font-family: Arial, sans-serif; font-size: 10px; fill: black; font-weight: bold;">Disc</text><text x="665.5282423665258" y="420.05962864267497" text-anchor="middle" alignment-baseline="middle" style="font-family: Arial, sans-serif; font-size: 10px; fill: black; font-weight: bold;">Download</text><text x="546.1032081423724" y="147.5005" text-anchor="middle" alignment-baseline="middle" style="font-family: Arial, sans-serif; font-size: 10px; fill: black; font-weight: bold;">Other</text><text x="785" y="343.296050160595" text-anchor="end" alignment-baseline="middle" style="font-family: Arial, sans-serif; font-size: 10px; fill: black; font-weight: bold;">Streaming</text><text x="85.31694541991548" y="463.23900000000003" text-anchor="middle" alignment-baseline="middle" style="font-family: Arial, sans-serif; font-size: 10px; fill: black; font-weight: bold;">Vinyl</text></g></g><text x="4" y="4" style="font-family: Arial, sans-serif; font-size: 12px; fill: black; font-weight: bold; dominant-baseline: hanging;"/></g></g></svg>
