<svg xmlns="http://www.w3.org/2000/svg" width="810" height="600"><rect width="810" height="600" x="0" y="0" fill="#ffffff" id="background"/><g id="series"><g transform="translate(0,0)"><g transform="translate(50,50)" clip-path="url(#serieClipPath)"><g id="axis"><g transform="translate(0,500)" fill="none" font-size="10" font-family="sans-serif" text-anchor="middle"><path class="domain" stroke="currentColor" d="M0.5,6V0.5H710.5V6"/><g class="tick" opacity="1" transform="translate(0.5,0)"><line stroke="currentColor" y2="6"/><text fill="currentColor" y="9" dy="0.71em">92</text></g><g class="tick" opacity="1" transform="translate(89.5,0)"><line stroke="currentColor" y2="6"/><text fill="currentColor" y="9" dy="0.71em">94</text></g><g class="tick" opacity="1" transform="translate(178.5,0)"><line stroke="currentColor" y2="6"/><text fill="currentColor" y="9" dy="0.71em">96</text></g><g class="tick" opacity="1" transform="translate(266.5,0)"><line stroke="currentColor" y2="6"/><text fill="currentColor" y="9" dy="0.71em">98</text></g><g class="tick" opacity="1" transform="translate(355.5,0)"><line stroke="currentColor" y2="6"/><text fill="currentColor" y="9" dy="0.71em">100</text></g><g class="tick" opacity="1" transform="translate(444.5,0)"><line stroke="currentColor" y2="6"/><text fill="currentColor" y="9" dy="0.71em">102</text></g><g class="tick" opacity="1" transform="translate(533.5,0)"><line stroke="currentColor" y2="6"/><text fill="currentColor" y="9" dy="0.71em">104</text></g><g class="tick" opacity="1" transform="translate(621.5,0)"><line stroke="currentColor" y2="6"/><text fill="currentColor" y="9" dy="0.71em">106</text></g><g class="tick" opacity="1" transform="translate(710.5,0)"><line stroke="currentColor" y2="6"/><text fill="currentColor" y="9" dy="0.71em">108</text></g><text x="710" dy="-5" text-anchor="end" style="font-family: Arial, sans-serif; font-size: 12px; fill: rgb(123, 123, 123); font-weight: bold;">Frecuencia cardiaca promedio (bpm)</text></g><g fill="none" font-size="10" font-family="sans-serif" text-anchor="end"><path class="domain" stroke="currentColor" d="M-6,500.5H0.5V0.5H-6"/><g class="tick" opacity="1" transform="translate(0,500.5)"><line stroke="currentColor" x2="-6"/><text fill="currentColor" x="-9" dy="0.32em">100</text></g><g class="tick" opacity="1" transform="translate(0,444.5)"><line stroke="currentColor" x2="-6"/><text fill="currentColor" x="-9" dy="0.32em">120</text></g><g class="tick" opacity="1" transform="translate(0,389.5)"><line stroke="currentColor" x2="-6"/><text fill="currentColor" x="-9" dy="0.32em">140</text></g><g class="tick" opacity="1" transform="translate(0,333.5)"><line stroke="currentColor" x2="-6"/><text fill="currentColor" x="-9" dy="0.32em">160</text></g><g class="tick" opacity="1" transform="translate(0,278.5)"><line stroke="currentColor" x2="-6"/><text fill="currentColor" x="-9" dy="0.32em">180</text></g><g class="tick" opacity="1" transform="translate(0,222.5)"><line stroke="currentColor" x2="-6"/><text fill="currentColor" x="-9" dy="0.32em">200</text></g><g class="tick" opacity="1" transform="translate(0,167.5)"><line stroke="currentColor" x2="-6"/><text fill="currentColor" x="-9" dy="0.32em">220</text></g><g class="tick" opacity="1" transform="translate(0,111.5)"><line stroke="currentColor" x2="-6"/><text fill="currentColor" x="-9" dy="0.32em">240</text></g><g class="tick" opacity="1" transform="translate(0,56.5)"><line stroke="currentColor" x2="-6"/><text fill="currentColor" x="-9" dy="0.32em">260</text></g><g class="tick" opacity="1" transform="translate(0,0.5)"><line stroke="currentColor" x2="-6"/><text fill="currentColor" x="-9" dy="0.32em">280</text></g><text x="4" text-anchor="start" dominant-baseline="hanging" style="font-family: Arial, sans-serif; font-size: 12px; fill: rgb(123, 123, 123); font-weight: bold;">Calorías quemadas (Cal)</text></g></g><g id="viz"><g><circle cx="533" cy="53" fill="rgb(103, 0, 13)" r="9" stroke="none"/></g><g><circle cx="266" cy="189" fill="rgb(229, 52, 42)" r="8" stroke="none"/></g><g><circle cx="355" cy="122" fill="rgb(208, 32, 32)" r="8" stroke="none"/></g><g><circle cx="444" cy="156" fill="rgb(197, 25, 28)" r="8" stroke="none"/></g><g><circle cx="710" cy="92" fill="rgb(122, 5, 15)" r="8" stroke="none"/></g><g><circle cx="621" cy="161" fill="rgb(185, 20, 25)" r="8" stroke="none"/></g><g><circle cx="399" cy="208" fill="rgb(237, 64, 48)" r="8" stroke="none"/></g><g><circle cx="488" cy="139" fill="rgb(185, 20, 25)" r="8" stroke="none"/></g><g><circle cx="666" cy="81" fill="rgb(122, 5, 15)" r="8" stroke="none"/></g><g><circle cx="178" cy="231" fill="rgb(247, 91, 65)" r="7" stroke="none"/></g><g><circle cx="89" cy="300" fill="rgb(251, 131, 99)" r="7" stroke="none"/></g><g><circle cx="89" cy="322" fill="rgb(252, 168, 139)" r="7" stroke="none"/></g><g><circle cx="0" cy="336" fill="rgb(252, 180, 154)" r="7" stroke="none"/></g><g><circle cx="222" cy="253" fill="rgb(249, 105, 76)" r="7" stroke="none"/></g><g><circle cx="311" cy="342" fill="rgb(252, 180, 154)" r="7" stroke="none"/></g><g><circle cx="178" cy="331" fill="rgb(252, 168, 139)" r="7" stroke="none"/></g><g><circle cx="133" cy="317" fill="rgb(252, 156, 125)" r="7" stroke="none"/></g><g><circle cx="222" cy="331" fill="rgb(252, 168, 139)" r="7" stroke="none"/></g><g><circle cx="266" cy="350" fill="rgb(253, 192, 169)" r="7" stroke="none"/></g><g><circle cx="133" cy="414" fill="rgb(253, 204, 183)" r="6" stroke="none"/></g><g><circle cx="44" cy="475" fill="rgb(255, 245, 240)" r="6" stroke="none"/></g><g><circle cx="0" cy="414" fill="rgb(254, 231, 221)" r="6" stroke="none"/></g><g><circle cx="178" cy="358" fill="rgb(253, 192, 169)" r="6" stroke="none"/></g><g><circle cx="133" cy="389" fill="rgb(253, 214, 197)" r="6" stroke="none"/></g><g><circle cx="89" cy="428" fill="rgb(254, 224, 210)" r="6" stroke="none"/></g><g><circle cx="133" cy="375" fill="rgb(253, 204, 183)" r="6" stroke="none"/></g><g><circle cx="89" cy="403" fill="rgb(253, 214, 197)" r="6" stroke="none"/></g><g><circle cx="44" cy="439" fill="rgb(254, 231, 221)" r="6" stroke="none"/></g><g><circle cx="178" cy="375" fill="rgb(253, 192, 169)" r="6" stroke="none"/></g><g id="labels"><g transform="translate(533,53)"><text x="0" y="0" text-anchor="middle" dominant-baseline="text-before-edge" transform="translate(0,0)"/></g><g transform="translate(266,189)"><text x="0" y="0" text-anchor="middle" dominant-baseline="text-before-edge" transform="translate(0,0)"/></g><g transform="translate(355,122)"><text x="0" y="0" text-anchor="middle" dominant-baseline="text-before-edge" transform="translate(0,0)"/></g><g transform="translate(444,156)"><text x="0" y="0" text-anchor="middle" dominant-baseline="text-before-edge" transform="translate(0,0)"/></g><g transform="translate(710,92)"><text x="0" y="0" text-anchor="middle" dominant-baseline="text-before-edge" transform="translate(0,0)"/></g><g transform="translate(621,161)"><text x="0" y="0" text-anchor="middle" dominant-baseline="text-before-edge" transform="translate(0,0)"/></g><g transform="translate(399,208)"><text x="0" y="0" text-anchor="middle" dominant-baseline="text-before-edge" transform="translate(0,0)"/></g><g transform="translate(488,139)"><text x="0" y="0" text-anchor="middle" dominant-baseline="text-before-edge" transform="translate(0,0)"/></g><g transform="translate(666,81)"><text x="0" y="0" text-anchor="middle" dominant-baseline="text-before-edge" transform="translate(0,0)"/></g><g transform="translate(178,231)"><text x="0" y="0" text-anchor="middle" dominant-baseline="text-before-edge" transform="translate(0,0)"/></g><g transform="translate(89,300)"><text x="0" y="0" text-anchor="middle" dominant-baseline="text-before-edge" transform="translate(0,0)"/></g><g transform="translate(89,322)"><text x="0" y="0" text-anchor="middle" dominant-baseline="text-before-edge" transform="translate(0,0)"/></g><g transform="translate(0,336)"><text x="0" y="0" text-anchor="middle" dominant-baseline="text-before-edge" transform="translate(0,0)"/></g><g transform="translate(222,253)"><text x="0" y="0" text-anchor="middle" dominant-baseline="text-before-edge" transform="translate(0,0)"/></g><g transform="translate(311,342)"><text x="0" y="0" text-anchor="middle" dominant-baseline="text-before-edge" transform="translate(0,0)"/></g><g transform="translate(178,331)"><text x="0" y="0" text-anchor="middle" dominant-baseline="text-before-edge" transform="translate(0,0)"/></g><g transform="translate(133,317)"><text x="0" y="0" text-anchor="middle" dominant-baseline="text-before-edge" transform="translate(0,0)"/></g><g transform="translate(222,331)"><text x="0" y="0" text-anchor="middle" dominant-baseline="text-before-edge" transform="translate(0,0)"/></g><g transform="translate(266,350)"><text x="0" y="0" text-anchor="middle" dominant-baseline="text-before-edge" transform="translate(0,0)"/></g><g transform="translate(133,414)"><text x="0" y="0" text-anchor="middle" dominant-baseline="text-before-edge" transform="translate(0,0)"/></g><g transform="translate(44,475)"><text x="0" y="0" text-anchor="middle" dominant-baseline="text-before-edge" transform="translate(0,0)"/></g><g transform="translate(0,414)"><text x="0" y="0" text-anchor="middle" dominant-baseline="text-before-edge" transform="translate(0,0)"/></g><g transform="translate(178,358)"><text x="0" y="0" text-anchor="middle" dominant-baseline="text-before-edge" transform="translate(0,0)"/></g><g transform="translate(133,389)"><text x="0" y="0" text-anchor="middle" dominant-baseline="text-before-edge" transform="translate(0,0)"/></g><g transform="translate(89,428)"><text x="0" y="0" text-anchor="middle" dominant-baseline="text-before-edge" transform="translate(0,0)"/></g><g transform="translate(133,375)"><text x="0" y="0" text-anchor="middle" dominant-baseline="text-before-edge" transform="translate(0,0)"/></g><g transform="translate(89,403)"><text x="0" y="0" text-anchor="middle" dominant-baseline="text-before-edge" transform="translate(0,0)"/></g><g transform="translate(44,439)"><text x="0" y="0" text-anchor="middle" dominant-baseline="text-before-edge" transform="translate(0,0)"/></g><g transform="translate(178,375)"><text x="0" y="0" text-anchor="middle" dominant-baseline="text-before-edge" transform="translate(0,0)"/></g></g></g></g><text y="4" x="4" style="font-family: Arial, sans-serif; font-size: 12px; fill: black; font-weight: bold; dominant-baseline: hanging;"/></g></g><g id="grid"><rect x="0" y="0" width="810" height="600" fill="none" stroke="#ccc"/></g><clipPath id="serieClipPath"><rect x="-50" y="-50" width="810" height="600"/></clipPath></svg>